<?xml version="1.0" encoding="UTF-8"?>
<svg width="435px" height="119px" viewBox="0 0 435 119" version="1.1" xmlns="http://www.w3.org/2000/svg" xmlns:xlink="http://www.w3.org/1999/xlink">
    <title>logo_light</title>
    <g id="Page-1" stroke="none" stroke-width="1" fill="none" fill-rule="evenodd">
        <g id="logo_light" transform="translate(-12.000000, -20.000000)">
            <circle id="Oval" fill="#1F4AE7" cx="388.689592" cy="78.8413601" r="42.3649193"></circle>
            <path d="M437.088767,27.9626804 L440.22004,31.0939528 C441.391613,32.2655257 441.391613,34.1650206 440.22004,35.3365935 L345.836593,129.72004 C344.665021,130.891613 342.765526,130.891613 341.593953,129.72004 L338.46268,126.588767 C337.291108,125.417195 337.291108,123.5177 338.46268,122.346127 L432.846127,27.9626804 C434.0177,26.7911076 435.917195,26.7911076 437.088767,27.9626804 Z" id="Rectangle" fill="#D8D8D8"></path>
            <path d="M30.4185567,107 L30.4185567,85.5649718 C30.4185567,81.3992467 31.1154639,78.4067797 32.5092784,76.5875706 C33.9030928,74.7683616 36.1546392,73.8587571 39.2639175,73.8587571 C41.9979381,73.8587571 43.9010309,74.6892655 44.9731959,76.3502825 C46.0453608,78.0112994 46.5814433,80.5291902 46.5814433,83.9039548 L46.5814433,107 L58,107 L58,81.8474576 C58,79.3163842 57.7721649,77.0094162 57.3164948,74.9265537 C56.8608247,72.8436911 56.0701031,71.0772128 54.9443299,69.6271186 C53.8185567,68.1770245 52.2773196,67.0433145 50.3206186,66.2259887 C48.3639175,65.4086629 45.857732,65 42.8020619,65 C40.3896907,65 38.0309278,65.5404896 35.7257732,66.6214689 C33.4206186,67.7024482 31.5443299,69.4293785 30.0969072,71.8022599 L29.8556701,71.8022599 L29.8556701,66.1073446 L19,66.1073446 L19,107 L30.4185567,107 Z M84.4598131,108 C87.7283489,108 90.688785,107.499387 93.3411215,106.498162 C95.9934579,105.496936 98.2573209,104.060968 100.13271,102.190257 C102.0081,100.319547 103.454829,98.0667892 104.472897,95.4319853 C105.490966,92.7971814 106,89.846201 106,86.5790441 C106,83.3118873 105.490966,80.3477328 104.472897,77.6865809 C103.454829,75.0254289 102.0081,72.7594975 100.13271,70.8887868 C98.2573209,69.018076 95.9934579,67.5689338 93.3411215,66.5413603 C90.688785,65.5137868 87.7283489,65 84.4598131,65 C81.1912773,65 78.2442368,65.5137868 75.6186916,66.5413603 C72.9931464,67.5689338 70.7426791,69.018076 68.8672897,70.8887868 C66.9919003,72.7594975 65.5451713,75.0254289 64.5271028,77.6865809 C63.5090343,80.3477328 63,83.3118873 63,86.5790441 C63,89.846201 63.5090343,92.7971814 64.5271028,95.4319853 C65.5451713,98.0667892 66.9919003,100.319547 68.8672897,102.190257 C70.7426791,104.060968 72.9931464,105.496936 75.6186916,106.498162 C78.2442368,107.499387 81.1912773,108 84.4598131,108 Z M84.9601594,99 C83.0478088,99 81.4541833,98.633434 80.1792829,97.9003021 C78.9043825,97.1671702 77.8818061,96.1852971 77.1115538,94.9546828 C76.3413015,93.7240685 75.7968127,92.3363545 75.4780876,90.7915408 C75.1593625,89.2467271 75,87.6626385 75,86.0392749 C75,84.4159114 75.1593625,82.8187311 75.4780876,81.2477341 C75.7968127,79.6767372 76.3413015,78.2890232 77.1115538,77.0845921 C77.8818061,75.8801611 78.9043825,74.898288 80.1792829,74.1389728 C81.4541833,73.3796576 83.0478088,73 84.9601594,73 C86.87251,73 88.4794157,73.3796576 89.7808765,74.1389728 C91.0823373,74.898288 92.1181939,75.8801611 92.8884462,77.0845921 C93.6586985,78.2890232 94.2031873,79.6767372 94.5219124,81.2477341 C94.8406375,82.8187311 95,84.4159114 95,86.0392749 C95,87.6626385 94.8406375,89.2467271 94.5219124,90.7915408 C94.2031873,92.3363545 93.6586985,93.7240685 92.8884462,94.9546828 C92.1181939,96.1852971 91.0823373,97.1671702 89.7808765,97.9003021 C88.4794157,98.633434 86.87251,99 84.9601594,99 Z M128.524715,108 C131.239544,108 133.674905,107.508024 135.830798,106.524072 C137.986692,105.540119 139.730038,103.931224 141.060837,101.697387 L141.220532,101.697387 L141.220532,106.962861 L152,106.962861 L152,50 L140.661597,50 L140.661597,70.7427785 L140.501901,70.7427785 C139.224335,68.7216873 137.480989,67.1925722 135.271863,66.1554333 C133.062738,65.1182944 130.73384,64.5997249 128.285171,64.5997249 C125.250951,64.5997249 122.589354,65.1980743 120.30038,66.394773 C118.011407,67.5914718 116.108365,69.1737735 114.591255,71.1416781 C113.074144,73.1095828 111.929658,75.3833104 111.157795,77.9628611 C110.385932,80.5424117 110,83.215039 110,85.9807428 C110,88.8528198 110.385932,91.6185236 111.157795,94.2778542 C111.929658,96.9371848 113.074144,99.2906923 114.591255,101.338377 C116.108365,103.386061 118.038023,105.008253 120.380228,106.204952 C122.722433,107.401651 125.437262,108 128.524715,108 Z M131.121457,99 C129.340081,99 127.815115,98.6203424 126.546559,97.8610272 C125.278003,97.101712 124.225371,96.1067472 123.388664,94.8761329 C122.551957,93.6455186 121.944669,92.244713 121.566802,90.673716 C121.188934,89.102719 121,87.5317221 121,85.9607251 C121,84.284995 121.175439,82.6747231 121.526316,81.1299094 C121.877193,79.5850957 122.443995,78.2104733 123.226721,77.0060423 C124.009447,75.8016113 125.048583,74.8328298 126.34413,74.0996979 C127.639676,73.366566 129.232119,73 131.121457,73 C133.010796,73 134.576248,73.366566 135.817814,74.0996979 C137.059379,74.8328298 138.071525,75.7885196 138.854251,76.9667674 C139.636977,78.1450151 140.190283,79.5065458 140.51417,81.0513595 C140.838057,82.5961732 141,84.2064451 141,85.8821752 C141,87.5579053 140.838057,89.1812689 140.51417,90.7522659 C140.190283,92.3232628 139.650472,93.7240685 138.894737,94.9546828 C138.139001,96.1852971 137.126856,97.1671702 135.8583,97.9003021 C134.589744,98.633434 133.010796,99 131.121457,99 Z M177.981262,108 C182.643765,108 186.617489,106.946078 189.902434,104.838235 C193.187379,102.730392 195.624596,99.2261029 197.214086,94.3253676 L187.279776,94.3253676 C186.908895,95.5900735 185.902218,96.7889093 184.259746,97.921875 C182.617273,99.0548407 180.656903,99.6213235 178.378635,99.6213235 C175.199655,99.6213235 172.762438,98.8045343 171.066983,97.1709559 C169.371527,95.5373775 168.444325,92.9025735 168.285376,89.2665441 L197.929356,89.2665441 C198.141288,86.1047794 197.876373,83.0747549 197.134611,80.1764706 C196.392849,77.2781863 195.187487,74.6960784 193.518523,72.4301471 C191.849558,70.1642157 189.716993,68.359375 187.120827,67.015625 C184.524661,65.671875 181.478139,65 177.981262,65 C174.855266,65 172.007431,65.5533088 169.437756,66.6599265 C166.868081,67.7665441 164.656041,69.2815564 162.801637,71.2049632 C160.947232,73.1283701 159.516692,75.4074755 158.510015,78.0422794 C157.503338,80.6770833 157,83.5226716 157,86.5790441 C157,89.7408088 157.490093,92.6390931 158.470278,95.2738971 C159.450463,97.908701 160.841266,100.174632 162.642688,102.071691 C164.444109,103.96875 166.642903,105.431066 169.23907,106.45864 C171.835236,107.486213 174.7493,108 177.981262,108 Z M186,82 L168,82 C168.051948,81.1818182 168.220779,80.2545455 168.506494,79.2181818 C168.792208,78.1818182 169.285714,77.2 169.987013,76.2727273 C170.688312,75.3454545 171.623377,74.5681818 172.792208,73.9409091 C173.961039,73.3136364 175.428571,73 177.194805,73 C179.896104,73 181.909091,73.7636364 183.233766,75.2909091 C184.558442,76.8181818 185.480519,79.0545455 186,82 Z M220.277662,108 C222.604732,108 224.892136,107.776042 227.139875,107.328125 C229.387613,106.880208 231.384134,106.102941 233.129436,104.996324 C234.874739,103.889706 236.289492,102.42739 237.373695,100.609375 C238.457898,98.7913603 239,96.5386029 239,93.8511029 C239,91.9540441 238.629784,90.3599877 237.889353,89.0689338 C237.148921,87.7778799 236.170494,86.6976103 234.954071,85.828125 C233.737648,84.9586397 232.349339,84.2604167 230.789144,83.7334559 C229.228949,83.2064951 227.629088,82.7585784 225.989562,82.3897059 C224.402923,82.0208333 222.842728,81.6783088 221.308977,81.3621324 C219.775226,81.0459559 218.413361,80.6902574 217.223382,80.2950368 C216.033403,79.8998162 215.068198,79.3860294 214.327766,78.7536765 C213.587335,78.1213235 213.217119,77.3045343 213.217119,76.3033088 C213.217119,75.4601716 213.428671,74.7882966 213.851775,74.2876838 C214.274878,73.7870711 214.790536,73.4050245 215.398747,73.1415441 C216.006959,72.8780637 216.68128,72.7068015 217.421712,72.6277574 C218.162143,72.5487132 218.849687,72.5091912 219.484342,72.5091912 C221.494085,72.5091912 223.239388,72.8912377 224.720251,73.6553309 C226.201113,74.419424 227.020877,75.8817402 227.179541,78.0422794 L237.889353,78.0422794 C237.677801,75.5128676 237.029923,73.4181985 235.94572,71.7582721 C234.861517,70.0983456 233.499652,68.7677696 231.860125,67.7665441 C230.220598,66.7653186 228.356298,66.0539216 226.267223,65.6323529 C224.178149,65.2107843 222.022965,65 219.80167,65 C217.580376,65 215.411969,65.1976103 213.296451,65.5928309 C211.180932,65.9880515 209.276966,66.6731005 207.584551,67.6479779 C205.892136,68.6228554 204.530271,69.9534314 203.498956,71.6397059 C202.467641,73.3259804 201.951983,75.4865196 201.951983,78.1213235 C201.951983,79.9129902 202.322199,81.4280025 203.06263,82.6663603 C203.803062,83.9047181 204.781489,84.9322917 205.997912,85.7490809 C207.214335,86.5658701 208.602644,87.2245711 210.162839,87.7251838 C211.723034,88.2257966 213.322895,88.6605392 214.962422,89.0294118 C218.981907,89.872549 222.115518,90.7156863 224.363257,91.5588235 C226.610995,92.4019608 227.734864,93.6666667 227.734864,95.3529412 C227.734864,96.3541667 227.496868,97.1841299 227.020877,97.8428309 C226.544885,98.5015319 225.949896,99.0284926 225.235908,99.4237132 C224.521921,99.8189338 223.728601,100.108762 222.85595,100.293199 C221.983299,100.477635 221.150313,100.569853 220.356994,100.569853 C219.246347,100.569853 218.175365,100.438113 217.14405,100.174632 C216.112735,99.911152 215.200418,99.5027574 214.407098,98.9494485 C213.613779,98.3961397 212.965901,97.6847426 212.463466,96.8152574 C211.96103,95.9457721 211.709812,94.9050245 211.709812,93.6930147 L201,93.6930147 C201.105776,96.4332108 201.727209,98.7123162 202.864301,100.530331 C204.001392,102.348346 205.455811,103.810662 207.227557,104.917279 C208.999304,106.023897 211.022269,106.814338 213.296451,107.288603 C215.570633,107.762868 217.897704,108 220.277662,108 Z M250.676218,107 L255.169054,94.3067227 L276.590258,94.3067227 L280.922636,107 L294,107 L272.578797,50 L259.661891,50 L238,107 L250.676218,107 Z M274,85 L259,85 L266.540541,64 L266.702703,64 L274,85 Z M310,107 L310,50 L297,50 L297,107 L310,107 Z" id="nodesAI" fill="#000000" fill-rule="nonzero"></path>
        </g>
    </g>
</svg>